<svg width="27" height="32" viewBox="0 0 27 32" fill="none" xmlns="http://www.w3.org/2000/svg">
<path d="M26.0117 13.9903C25.8868 13.6558 25.5669 13.4334 25.2092 13.4334H14.8785L20.8374 1.84744C21.0247 1.48297 20.9281 1.03723 20.6055 0.783981C20.4498 0.660781 20.2624 0.600037 20.0759 0.600037C19.8766 0.600037 19.6773 0.670192 19.5173 0.807937L13.2315 6.23644L0.695173 17.0635C0.42482 17.2971 0.327287 17.6744 0.452197 18.0089C0.577108 18.3434 0.896228 18.5667 1.25385 18.5667H11.5846L5.62571 30.1526C5.43834 30.5171 5.53502 30.9628 5.85756 31.2161C6.01327 31.3393 6.20063 31.4 6.38715 31.4C6.58649 31.4 6.78583 31.3299 6.94582 31.1921L13.2315 25.7636L25.7679 14.9366C26.0391 14.703 26.1358 14.3257 26.0117 13.9903Z" fill="#10151A"/>
</svg>
