<svg width="34" height="30" viewBox="0 0 34 30" fill="none" xmlns="http://www.w3.org/2000/svg">
<path d="M25.4157 9.41667C24.8176 9.07263 24.0486 9.07263 23.365 9.41667L18.5801 12.255L15.3332 14.0612L10.6338 16.8995C10.0357 17.2436 9.26665 17.2436 8.58309 16.8995L4.90896 14.6633C4.31085 14.3192 3.88362 13.6312 3.88362 12.8571V8.55657C3.88362 7.8685 4.2254 7.18042 4.90896 6.75037L8.58309 4.60012C9.1812 4.25608 9.95021 4.25608 10.6338 4.60012L14.3079 6.83638C14.906 7.18042 15.3332 7.8685 15.3332 8.64258V11.4809L18.5801 9.58869V6.66436C18.5801 5.97628 18.2384 5.2882 17.5548 4.85815L10.7192 0.815685C10.1211 0.471645 9.35209 0.471645 8.66853 0.815685L1.66206 4.94416C0.978498 5.2882 0.636719 5.97628 0.636719 6.66436V14.7493C0.636719 15.4374 0.978498 16.1254 1.66206 16.5555L8.58309 20.598C9.1812 20.942 9.95021 20.942 10.6338 20.598L15.3332 17.8456L18.5801 15.9534L23.2796 13.2011C23.8777 12.8571 24.6467 12.8571 25.3303 13.2011L29.0044 15.3514C29.6025 15.6954 30.0297 16.3835 30.0297 17.1576V21.4581C30.0297 22.1461 29.688 22.8342 29.0044 23.2643L25.4157 25.4145C24.8176 25.7586 24.0486 25.7586 23.365 25.4145L19.6909 23.2643C19.0928 22.9202 18.6656 22.2321 18.6656 21.4581V18.7057L15.4187 20.598V23.4363C15.4187 24.1244 15.7605 24.8124 16.444 25.2425L23.365 29.285C23.9632 29.629 24.7322 29.629 25.4157 29.285L32.3368 25.2425C32.9349 24.8985 33.3621 24.2104 33.3621 23.4363V15.2653C33.3621 14.5773 33.0203 13.8892 32.3368 13.4591L25.4157 9.41667Z" fill="#10151A"/>
</svg>
