<svg width="34" height="36" viewBox="0 0 34 36" fill="none" xmlns="http://www.w3.org/2000/svg">
<path d="M4.8489 14.8267C5.20926 15.5661 6.10116 17.0274 6.10116 17.0274L16.412 0.666611L6.3489 7.41154C5.74928 7.79551 5.25734 8.31522 4.91646 8.92484C4.45815 9.84451 4.21464 10.8492 4.20297 11.8686C4.1913 12.888 4.41175 13.8976 4.8489 14.8267Z" fill="#10151A"/>
<path d="M0.763276 20.214C0.876894 21.779 1.33756 23.3026 2.11442 24.6829C2.89128 26.0631 3.96641 27.268 5.2678 28.2171L16.3984 35.6668C16.3984 35.6668 9.43449 26.0336 3.56059 16.4481C2.96591 15.4353 2.56614 14.3281 2.38041 13.1793C2.29818 12.6592 2.29818 12.13 2.38041 11.6099C2.22725 11.8822 1.92995 12.44 1.92995 12.44C1.33436 13.6059 0.92873 14.8527 0.72724 16.1367C0.611263 17.4941 0.623325 18.8587 0.763276 20.214Z" fill="#10151A"/>
<path d="M29.1598 21.5067C28.7994 20.7675 27.9076 19.306 27.9076 19.306L17.5967 35.6668L27.6599 28.9263C28.2595 28.5422 28.7513 28.0225 29.0922 27.4129C29.5513 26.4926 29.7951 25.4872 29.8069 24.467C29.8185 23.4468 29.5977 22.4365 29.1598 21.5067Z" fill="#10151A"/>
<path d="M33.2454 16.1194C33.1318 14.5544 32.6711 13.0308 31.8943 11.6506C31.1175 10.2703 30.0423 9.06536 28.7409 8.11631L17.6102 0.666611C17.6102 0.666611 24.5697 10.2998 30.4481 19.8853C31.0413 20.8983 31.4394 22.0056 31.6238 23.1541C31.706 23.6742 31.706 24.2034 31.6238 24.7236C31.7769 24.4511 32.0742 23.8934 32.0742 23.8934C32.6698 22.7275 33.0755 21.4807 33.277 20.1967C33.3945 18.8395 33.3839 17.4748 33.2454 16.1194Z" fill="#10151A"/>
<path d="M4.91646 8.92484C5.25734 8.31522 5.74928 7.79551 6.3489 7.41154L16.412 0.666611L6.10114 17.0317C6.10114 17.0317 5.20023 15.5703 4.84888 14.8309C4.41104 13.9013 4.19023 12.8909 4.2019 11.8707C4.21356 10.8505 4.45747 9.84508 4.91646 8.92484ZM0.763276 20.214C0.876894 21.779 1.33756 23.3026 2.11442 24.6829C2.89128 26.0631 3.96641 27.268 5.2678 28.2171L16.3984 35.6668C16.3984 35.6668 9.43449 26.0336 3.56059 16.4481C2.96591 15.4353 2.56614 14.3281 2.38041 13.1793C2.29818 12.6592 2.29818 12.13 2.38041 11.6099C2.22725 11.8822 1.92995 12.44 1.92995 12.44C1.33436 13.6059 0.92873 14.8527 0.72724 16.1367C0.611263 17.4941 0.623325 18.8587 0.763276 20.214ZM29.1418 21.5111C28.7814 20.7717 27.8896 19.3103 27.8896 19.3103L17.5967 35.6668L27.6599 28.9263C28.2595 28.5422 28.7513 28.0225 29.0922 27.4129C29.5513 26.4926 29.7951 25.4872 29.8069 24.467C29.8185 23.4468 29.5977 22.4365 29.1598 21.5067L29.1418 21.5111ZM33.2273 16.1238C33.1138 14.5588 32.6531 13.0351 31.8762 11.6549C31.0994 10.2747 30.0243 9.06969 28.7228 8.12064L17.6102 0.666611C17.6102 0.666611 24.5697 10.2998 30.4481 19.8853C31.0413 20.8983 31.4394 22.0056 31.6238 23.1541C31.706 23.6742 31.706 24.2034 31.6238 24.7236C31.7769 24.4511 32.0742 23.8934 32.0742 23.8934C32.6698 22.7275 33.0755 21.4807 33.277 20.1967C33.3945 18.8395 33.3839 17.4748 33.2454 16.1194L33.2273 16.1238Z" fill="#10151A"/>
</svg>
